<?xml version="1.0" encoding="iso-8859-1"?>
<!-- Generator: Adobe Illustrator 16.0.0, SVG Export Plug-In . SVG Version: 6.00 Build 0)  -->
<!DOCTYPE svg PUBLIC "-//W3C//DTD SVG 1.1//EN" "http://www.w3.org/Graphics/SVG/1.1/DTD/svg11.dtd">
<svg xmlns="http://www.w3.org/2000/svg" xmlns:xlink="http://www.w3.org/1999/xlink" version="1.1" id="Capa_1" x="0px" y="0px" width="512px" height="512px" viewBox="0 0 93.867 93.867" style="enable-background:new 0 0 93.867 93.867;" xml:space="preserve">
<g>
	<g>
		<path d="M66.886,71.323c3.403,0.018,6.922-0.946,9.524-3.222c2.422-2.11,3.563-5.381,3.572-8.54    c0.006-3.168,0.031-6.341-0.025-9.513c-0.125-4.9,0.142-9.821-0.256-14.713c-0.822-9.728-2.809-19.588-7.68-28.156    c-1.227-2.062-2.584-4.087-4.35-5.729c-0.818-0.737-1.803-1.48-2.959-1.438C52.959,0.005,41.208,0.015,29.455,0.005    c-0.908-0.053-1.756,0.349-2.438,0.917c-1.803,1.473-3.219,3.354-4.432,5.322c-5.229,8.623-7.33,18.732-8.215,28.666    c-0.27,4.467-0.057,8.946-0.162,13.422c-0.076,3.855-0.008,7.719-0.043,11.576c-0.055,2.101,0.477,4.223,1.613,5.999    c2.402,3.79,7.07,5.481,11.406,5.416c-4.666,6.912-9.936,14.219-14.654,21.097l-0.002,1.431l7.166-0.005    c1.537-1.937,2.799-4.04,4.273-6.019l46.072,0.001l4.287,6.031l7.002,0.008l0.012-1.382L66.886,71.323z M66.09,63.049    c-2.377-0.307-4.526-2.425-4.454-4.896c-0.185-2.354,1.668-4.521,3.907-5.045c2.89-0.765,6.115,1.686,6.097,4.688    C71.927,60.763,69.004,63.422,66.09,63.049z M19.865,38.976c-0.145-1.577-0.035-3.158-0.092-4.735    c-0.242-6.749,0.988-13.555,3.654-19.767c1.344-3.016,3.045-5.922,5.383-8.277c1.031-0.964,2.266-2,3.773-1.902    c9.666,0.014,19.337,0.01,29.001,0.003c1.136-0.07,2.136,0.597,2.968,1.292c1.836,1.584,3.245,3.598,4.473,5.678    c4.113,7.367,5.595,15.984,5.313,24.35c-0.024,1.569,0.162,3.224-0.567,4.68c-0.774,1.759-2.604,3.075-4.547,3.079    c-14.758,0.003-29.52-0.003-44.277,0C22.476,43.415,20.215,41.394,19.865,38.976z M60.959,74.676L32.5,74.679l2.143-3.276    l24.353-0.013L60.959,74.676z M26.381,62.955c-1.998-0.426-3.623-2.104-3.965-4.115c-0.457-2.479,1.277-5.064,3.693-5.692    c2.951-0.89,6.277,1.57,6.309,4.648C32.681,60.92,29.418,63.705,26.381,62.955z M26.974,83.655    c1.381-2.195,2.936-4.343,4.373-6.496l31.215-0.021c1.563,2.105,3.008,4.293,4.515,6.437L26.974,83.655z" fill="#FFFFFF"/>
		<path d="M58.797,15.857l-5.194,0.011l-6.219,7.34l-6.322-7.354l-5.273-0.002l-0.002,19.612l5.77-0.018l-0.002-11.327l5.627,6.645    l5.674-6.578l0.01,11.279c1.979-0.003,3.984,0.003,5.965-0.007L58.797,15.857z" fill="#FFFFFF"/>
	</g>
</g>
<g>
</g>
<g>
</g>
<g>
</g>
<g>
</g>
<g>
</g>
<g>
</g>
<g>
</g>
<g>
</g>
<g>
</g>
<g>
</g>
<g>
</g>
<g>
</g>
<g>
</g>
<g>
</g>
<g>
</g>
</svg>
