<?xml version="1.0" encoding="iso-8859-1"?>
<!-- Generator: Adobe Illustrator 19.0.0, SVG Export Plug-In . SVG Version: 6.00 Build 0)  -->
<svg xmlns="http://www.w3.org/2000/svg" xmlns:xlink="http://www.w3.org/1999/xlink" version="1.1" id="Capa_1" x="0px" y="0px" viewBox="0 0 512 512" style="enable-background:new 0 0 512 512;" xml:space="preserve" width="512px" height="512px">
<g>
	<g>
		<path d="M467,166c-24.853,0-45,20.147-45,45v60c0,24.853-20.147,45-45,45H136c-24.853,0-45-20.147-45-45v-60    c0-24.853-20.147-45-45-45c-24.853,0-46,20.147-46,45c0,19.565,13.563,36.048,31,42.246V361c0,24.853,20.147,45,45,45h361    c24.853,0,45-20.147,45-45V253.246c17.437-6.198,30-22.681,30-42.246C512,186.147,491.853,166,467,166z" fill="#FFFFFF"/>
	</g>
</g>
<g>
	<g>
		<path d="M211,226h-60c-16.569,0-30,13.431-30,30c0,16.569,13.431,30,30,30h60c16.569,0,30-13.431,30-30    C241,239.431,227.569,226,211,226z" fill="#FFFFFF"/>
	</g>
</g>
<g>
	<g>
		<path d="M362,226h-61c-16.569,0-30,13.431-30,30c0,16.569,13.431,30,30,30h61c16.569,0,30-13.431,30-30    C392,239.431,378.569,226,362,226z" fill="#FFFFFF"/>
	</g>
</g>
<g>
	<g>
		<path d="M256,16C146.73,16,55.243,67.152,35.12,137.1c3.582-0.527,7.154-1.1,10.88-1.1c39.192,0,71.094,30.33,74.361,68.69    c9-5.394,19.402-8.69,30.639-8.69h60c18.007,0,33.995,8.134,45,20.729C267.005,204.134,282.993,196,301,196h61    c11.237,0,21.639,3.296,30.639,8.69C395.906,166.33,427.808,136,467,136c3.726,0,7.299,0.573,10.88,1.1    C457.757,67.152,365.27,16,256,16z M166,136c-8.284,0-15-6.716-15-15s6.716-15,15-15s15,6.716,15,15S174.284,136,166,136z     M256,136c-8.284,0-15-6.716-15-15s6.716-15,15-15s15,6.716,15,15S264.284,136,256,136z M347,136c-8.284,0-15-6.716-15-15    s6.716-15,15-15s15,6.716,15,15S355.284,136,347,136z" fill="#FFFFFF"/>
	</g>
</g>
<g>
	<g>
		<path d="M362,436v15c0,24.814,20.186,45,45,45c24.814,0,45-20.186,45-45v-15H362z" fill="#FFFFFF"/>
	</g>
</g>
<g>
	<g>
		<path d="M61,436v15c0,24.814,20.186,45,45,45c24.814,0,45-20.186,45-45v-15H61z" fill="#FFFFFF"/>
	</g>
</g>
<g>
</g>
<g>
</g>
<g>
</g>
<g>
</g>
<g>
</g>
<g>
</g>
<g>
</g>
<g>
</g>
<g>
</g>
<g>
</g>
<g>
</g>
<g>
</g>
<g>
</g>
<g>
</g>
<g>
</g>
</svg>
